<svg xmlns="http://www.w3.org/2000/svg" width="183.583" height="38" viewBox="0 0 183.583 38">
  <defs>
    <style>
      .cls-1, .cls-2 {
        fill: #222;
      }

      .cls-1 {
        font-size: 32px;
        
      }
	  
	   @font-face {
			font-family: GlyphWorld-Mountain, GlyphWorld Mountain;
			src: url('./GlyphWorld-Mountain.otf') format("opentype");
	   }
    </style>
  </defs>
  <g id="Group_35" data-name="Group 35" transform="translate(-57.417 -25)">
    <g id="Group_26" data-name="Group 26" transform="translate(-3)">
      <g id="Group_2" data-name="Group 2" transform="translate(-3)">
        <text id="Pinecone" class="cls-1" transform="translate(98 56)"><tspan x="0" y="0">Pinecone</tspan></text>
      </g>
    </g>
    <g id="nut" transform="translate(10.804 -6.71) rotate(30)">
      <g id="Group_28" data-name="Group 28" transform="translate(65.42 11.11)">
        <g id="Group_27" data-name="Group 27" transform="translate(0)">
          <path id="Path_147" data-name="Path 147" class="cls-2" d="M86.4,203.29a10.726,10.726,0,0,0-.478-1.627l-2.793,2.793a.826.826,0,0,1-1.169,0l-2.721-2.721-2.721,2.721a.826.826,0,0,1-1.169,0l-2.721-2.721-2.721,2.721a.826.826,0,0,1-1.169,0l-2.807-2.807a7.444,7.444,0,0,0-.5,1.655.809.809,0,0,0,.237.724c.916.877,3.5,3.483,3.654,3.635l2.721-2.721a.826.826,0,0,1,1.169,0l2.721,2.721,2.722-2.722a.825.825,0,0,1,1.167,0l2.723,2.722c.147-.147,2.693-2.7,3.62-3.6A.826.826,0,0,0,86.4,203.29Z" transform="translate(-65.42 -201.648)"/>
        </g>
      </g>
      <g id="Group_30" data-name="Group 30" transform="translate(66.871 16.154)">
        <g id="Group_29" data-name="Group 29" transform="translate(0)">
          <path id="Path_148" data-name="Path 148" class="cls-2" d="M108.025,295.932a.828.828,0,0,1-1.169,0l-2.721-2.721-2.722,2.722a.824.824,0,0,1-1.168,0l-2.721-2.721L94.8,295.931a.826.826,0,0,1-1.169,0l-1.867-1.867a9.965,9.965,0,0,0,2.183,5.341l2.99-2.99a.826.826,0,0,1,1.169,0l2.721,2.721,2.721-2.721a.826.826,0,0,1,1.169,0l2.989,2.989a9.956,9.956,0,0,0,2.175-5.329Z" transform="translate(-91.766 -293.21)"/>
        </g>
      </g>
      <g id="Group_32" data-name="Group 32" transform="translate(65.737)">
        <g id="Group_31" data-name="Group 31" transform="translate(0)">
          <path id="Path_149" data-name="Path 149" class="cls-2" d="M91.473,7.867c-1.605-2.636-6.039-3.534-9.266-3.61V.826a.826.826,0,0,0-1.653,0V4.257c-3.248.076-7.669.984-9.268,3.609a.8.8,0,0,0,.152.972c.962.953,3.176,3.172,3.33,3.326L77.49,9.443a.826.826,0,0,1,1.169,0l2.721,2.721L84.1,9.443a.826.826,0,0,1,1.169,0l2.721,2.721c.147-.146,2.366-2.371,3.329-3.325A.8.8,0,0,0,91.473,7.867Z" transform="translate(-71.183)"/>
        </g>
      </g>
      <g id="Group_34" data-name="Group 34" transform="translate(70.11 21.113)">
        <g id="Group_33" data-name="Group 33" transform="translate(0)">
          <path id="Path_150" data-name="Path 150" class="cls-2" d="M159.682,383.211l-2.721,2.721a.826.826,0,0,1-1.169,0l-2.721-2.721-2.518,2.518a26.7,26.7,0,0,0,5.4,4.459.827.827,0,0,0,.851,0,26.683,26.683,0,0,0,5.4-4.46Z" transform="translate(-150.552 -383.211)"/>
        </g>
      </g>
    </g>
  </g>
</svg>
