<svg xmlns="http://www.w3.org/2000/svg" viewBox="0 0 1939.49 298.32"><defs><style>.cls-1{fill:#fff;}</style></defs><title>Asset 2</title><g id="Layer_2" data-name="Layer 2"><g id="Layer_1-2" data-name="Layer 1"><path class="cls-1" d="M522.36,150.87H499.89v20H467.6V194.4H375.28v98.29H339.82V29.41h78.63c66.35,0,103.91,26,103.91,82.14ZM486.9,141V111.2c0-36.5-23.87-51.95-73.71-51.95H375.28V164.56h85.3V141Z"/><path class="cls-1" d="M585.9,29.41V292.69H550.44V29.41Z"/><path class="cls-1" d="M811.26,29.41V292.69H775.8v-82.5H754V190.54H737.19V169.82H722.45v-19.3h-17.2V129.11H687.34V109.45H670.49V88.74H655.75V69.43h-6.32V292.69H614V29.41h57.57V48.72h17.2V69.78h14.74V89.09h16.85V110.5h17.9v19.31h17.2v21.06h14.75v19.31h5.61V29.41Z"/><path class="cls-1" d="M874.8,60v79.34h85v15.44h27.38v29.84H951V169.12H874.8V261.8h131.28v30.89H839.34V29.41h166.74V60Z"/><path class="cls-1" d="M1248.65,233.36C1230.39,276.19,1196,298,1151.06,298c-69.85,0-116.89-56.16-116.89-140.06v-73h35.45v72.66c0,66.34,32.65,110.57,81.09,110.57,29.49,0,53.36-13.69,64.59-44.58ZM1206.17,56.09H1077.34V26.25h135.85V49.77h32.3V95.41h-39.32Z"/><path class="cls-1" d="M1276.73,249.86V72.94h35.46V53.28h19.65V28h135.85V61.36H1346.24V95.41h-34V249.86ZM1519.3,76.45V253.37h-35.46V273h-19.66V298.3H1328.33V265h121.46v-34h34V76.45Z"/><path class="cls-1" d="M1744.66,29.41V292.69h-35.45v-82.5h-21.77V190.54h-16.85V169.82h-14.74v-19.3h-17.2V129.11h-17.9V109.45H1603.9V88.74h-14.75V69.43h-6.31V292.69h-35.46V29.41H1605V48.72h17.2V69.78h14.74V89.09h16.85V110.5h17.91v19.31h17.2v21.06h14.74v19.31h5.62V29.41Z"/><path class="cls-1" d="M1808.2,60v79.34h85v15.44h27.38v29.84h-36.16V169.12H1808.2V261.8h131.29v30.89H1772.75V29.41h166.74V60Z"/><path class="cls-1" d="M209.08,107.53,163.32,95.27,151.06,141l-12.46,7.19L92.85,136,80.59,181.71l-12.46,7.2-47.2-12.65c1.79,11.65,3.1,16,4.86,20.71a10,10,0,0,0,7,6.26C47.92,207,91.54,218.8,94.09,219.48l12.26-45.76,12.45-7.19,45.76,12.26L176.82,133l12.44-7.18L235,138.1c.66-2.47,12.08-45.37,16.41-60.69a10.16,10.16,0,0,0-2.22-9.63,132,132,0,0,0-15.12-14.4l-12.58,47"/><path class="cls-1" d="M169.12,201.07l-45.76-12.26L111.1,234.57l-12.45,7.19-31.4-8.41c13,20.05,33.75,33.93,56.14,43.5l13.47-50.27,12.46-7.19,45.75,12.26,12.26-45.76,12.46-7.19L270,192.16c2.89-24.11,1.2-48.9-9.61-70.18l-8.38,31.22-12.46,7.19-45.76-12.26-12.26,45.76"/><path class="cls-1" d="M55.46,10.17,76.57,46.74C42.42,67.54.89,104.42,0,142.25c-.1,4.47,3.28,8.29,7.61,9.42,16.12,4.24,53.37,14.26,56,15l12.26-45.76,12.46-7.19L134,125.94,146.3,80.18,158.76,73l45.76,12.26c.66-2.46,10.63-39.83,15-55.93,1.18-4.31-.44-9.15-4.36-11.3-33.33-18.21-86.12-.51-121,18.55L73.08,0"/><path class="cls-1" d="M199.63,253.93l-45.75-12.26L142.53,284c41.3,13.24,82,14.26,85,14.31a10.16,10.16,0,0,0,9.07-5.24c1.46-2.64,20.93-38.37,30.09-80.76L224.35,201l-12.26,45.76"/></g></g></svg>