<svg xmlns="http://www.w3.org/2000/svg" viewBox="0 0 125.03 28.14"><defs><style>.cls-1{fill:#fff;}</style></defs><title>Asset 1</title><g id="Layer_2" data-name="Layer 2"><g id="Layer_1-2" data-name="Layer 1"><path class="cls-1" d="M15.48,14.48c0,5.21-2.73,8.5-6.85,8.5a5.61,5.61,0,0,1-5.18-3H3.38v8.14H0V6.27H3.27V9.09h.06A5.69,5.69,0,0,1,8.56,6C12.73,6,15.48,9.28,15.48,14.48Zm-3.46,0c0-3.43-1.68-5.64-4.35-5.64s-4.31,2.25-4.31,5.64,1.72,5.65,4.31,5.65S12,17.94,12,14.48Z"/><path class="cls-1" d="M17.92,1.94a2,2,0,0,1,3.92,0,2,2,0,0,1-3.92,0Zm.27,4.33h3.37V22.7H18.19Z"/><path class="cls-1" d="M25,6.27h3.21V9h.08a5.34,5.34,0,0,1,5.17-3c3.63,0,5.71,2.32,5.71,6.08V22.7H35.8v-10c0-2.47-1.16-3.83-3.5-3.83s-3.91,1.69-3.91,4.24V22.7H25Z"/><path class="cls-1" d="M56.53,17.88c-.47,3-3.31,5.14-7.08,5.14-4.82,0-7.75-3.27-7.75-8.46S44.67,6,49.31,6s7.41,3.22,7.41,8.2v1.16H45.11v.2c0,2.86,1.72,4.75,4.42,4.75a3.73,3.73,0,0,0,3.8-2.4ZM45.13,13h8.21c-.07-2.52-1.67-4.28-4-4.28S45.3,10.48,45.13,13Z"/><path class="cls-1" d="M70.22,11.92a3.73,3.73,0,0,0-3.86-3.14C63.75,8.78,62,11,62,14.48s1.74,5.71,4.36,5.71a3.61,3.61,0,0,0,3.83-3.05h3.25c-.36,3.5-3.16,5.88-7.11,5.88-4.7,0-7.77-3.22-7.77-8.54S61.66,6,66.33,6c4.23,0,6.81,2.72,7.11,6Z"/><path class="cls-1" d="M75.13,14.48C75.13,9.2,78.23,6,82.92,6s7.8,3.23,7.8,8.51S87.63,23,82.92,23,75.13,19.78,75.13,14.48Zm12.15,0c0-3.64-1.72-5.73-4.36-5.73s-4.36,2.09-4.36,5.73,1.72,5.75,4.36,5.75S87.28,18.14,87.28,14.48Z"/><path class="cls-1" d="M93.33,6.27h3.22V9h.08a5.34,5.34,0,0,1,5.17-3c3.62,0,5.7,2.32,5.7,6.08V22.7h-3.39v-10c0-2.47-1.16-3.83-3.5-3.83s-3.91,1.69-3.91,4.24V22.7H93.33Z"/><path class="cls-1" d="M124.84,17.88c-.46,3-3.31,5.14-7.07,5.14-4.83,0-7.75-3.27-7.75-8.46S113,6,117.63,6s7.4,3.22,7.4,8.2v1.16H113.42v.2c0,2.86,1.72,4.75,4.42,4.75a3.72,3.72,0,0,0,3.8-2.4ZM113.44,13h8.22c-.08-2.52-1.68-4.28-4-4.28A4.23,4.23,0,0,0,113.44,13Z"/></g></g></svg>